<?xml version="1.0" encoding="UTF-8"?><svg id="Layer_1" xmlns="http://www.w3.org/2000/svg" viewBox="0 0 496 485.13"><defs><style>.cls-1{fill:#fff;}</style></defs><path class="cls-1" d="M390.28,40.67c26.02,24.77,58.82,52.9,82.12,79.33,12.06,13.68,21.15,32,22.51,50.47,3.46,46.81-2.7,97.81,0,145.07-2.11,18.13-9.18,34.19-21,47.99-29.18,34.06-69.99,63.9-99.96,97.98-14.6,12.7-32.01,20.79-51.45,22.52-48.59-2.71-100.84,3.47-149,0-18.21-1.31-36.68-9.77-50.45-21.53-35.16-30-67.23-68.95-101.96-99.98-11.17-13.42-18.23-29.5-20-46.98,2.7-47.26-3.46-98.26,0-145.07,1.32-17.83,10.35-36.67,22-49.99C53.37,85.87,94.53,54.71,126.05,20.51c14.3-11.3,32.13-18.3,50.45-19.53,46.73-3.14,96.91,2.47,144.01,0,33.64,2.25,47.54,18.52,69.77,39.69ZM146.05,20.52v47l1.5,1.5h200.9l1.5-1.5V20.52c-8.67-5.38-20.29-7.91-30.44-8.55-47.21-2.96-97.48,2.34-145.01,0-9.8,1.4-20,2.97-28.45,8.54ZM136.06,28.02c-4.1.77-9.12,5.91-12.52,8.97-7.75,6.98-22.97,21.19-28.97,29.02-.77,1.01-1.93,1.26-1.49,3.01h41.48l1.5-1.5V28.02ZM402.92,69.02c.44-1.75-.72-2-1.49-3.01-5.25-6.86-17.27-17.74-23.97-24.02-3.05-2.86-11.42-11.37-13.97-13.02-1.23-.8-1.98-1.23-3.55-.95v39.5l1.5,1.5h41.48ZM136.06,79.02h-38.48c-11.06,0-29.49,16.23-29.49,27.5v40.5h40.48c2.83,0,14.61-6.58,17.03-8.96,3.3-3.26,10.46-15.15,10.46-19.53v-39.5ZM427.91,158.02h-39.48c-14.26,0-38.48-20.89-38.48-35.5v-42l-1.5-1.5h-200.9l-1.5,1.5v41c0,15.12-23.64,36.5-38.48,36.5h-39.48v79h359.82v-79ZM427.91,147.02v-39.5c0-12.04-17.7-28.5-29.49-28.5h-38.48v38.5c0,11.34,17.1,29.5,28.49,29.5h39.48ZM19.12,147.02h37.98l.49-44.01c-4.3,3.45-9.05,7.2-13.03,10.96-7.35,6.94-16.66,16.4-21.86,25.13-.77,1.29-4.59,6.98-3.58,7.91ZM476.88,147.02c.07-1.96-1.28-3.65-2.2-5.3-5.29-9.51-24.52-29.94-33.29-36.69-.56-.43-3.3-2.24-3.48-2.01-.74,1.63.99,3.74.99,4.5v39.5h37.98ZM57.1,158.02H14.12c-4.17,25.91-1.03,52.75-2,79h44.98v-79ZM481.88,158.02h-42.98v79h44.98c-.94-26.26,2.13-53.07-2-79ZM57.1,248.01H12.12c1.02,26.23-2.25,53.13,2,79h42.98v-79ZM427.91,248.01H68.09v79h39.48c17.18,0,39.48,23.4,39.48,40.5v38.5h201.9v-38.5c0-17.1,22.3-40.5,39.48-40.5h39.48v-79ZM483.88,248.01h-44.98v79h42.98c4.13-25.93,1.06-52.74,2-79ZM57.1,338.01H19.12c2.62,8.29,9.08,14.98,14.34,21.65l23.15,22.34c3.29.16.49-2.03.49-2.49v-41.5ZM136.06,406v-37.5c0-12.21-17.2-30.5-29.49-30.5h-38.48v39.5c0,11.08,17.51,28.5,28.49,28.5h39.48ZM427.91,338.01h-38.48c-12.3,0-29.49,18.25-29.49,30.5v37.5h39.48c10.98,0,28.49-17.42,28.49-28.5v-39.5ZM476.88,338.01h-37.98l-.49,44.01,27.99-27c1.52-1.65,11.62-16,10.48-17.01ZM136.06,417l-43.98-.99c12.83,13.93,26.6,27.16,40.45,39.99l3.53,1v-40ZM359.94,417v40c1.56.27,2.31-.15,3.55-.95,2.26-1.46,9.71-8.98,12.46-11.53,9.4-8.73,18.55-18.31,26.98-28l-42.99.49ZM349.95,417h-203.9l.4,47.56c.84,1.8,4.29,2.72,6.08,3.45,10.02,4.12,22.19,5.5,32.96,6.02,37.9,1.84,85.06,1.66,123.03,0,7.38-.32,16.31-1.04,23.45-2.54,3.36-.71,15.68-4.22,17.4-6.48l.58-48.02Z"/></svg>