<?xml version="1.0" encoding="UTF-8"?>
<svg id="Layer_1" xmlns="http://www.w3.org/2000/svg" viewBox="0 0 496 485.13">
  <defs>
    <style>
      .animated-path {
        fill: none;
        stroke: #fff;
        stroke-width: 2;
        stroke-linecap: round;
        stroke-linejoin: round;
        stroke-dasharray: 1000;
        stroke-dashoffset: 1000;
        animation: draw 3s ease-in-out forwards;
      }
      
      .animated-path:nth-child(1) { animation-delay: 0s; }
      .animated-path:nth-child(2) { animation-delay: 0.2s; }
      .animated-path:nth-child(3) { animation-delay: 0.4s; }
      .animated-path:nth-child(4) { animation-delay: 0.6s; }
      .animated-path:nth-child(5) { animation-delay: 0.8s; }
      .animated-path:nth-child(6) { animation-delay: 1s; }
      .animated-path:nth-child(7) { animation-delay: 1.2s; }
      .animated-path:nth-child(8) { animation-delay: 1.4s; }
      
      @keyframes draw {
        to {
          stroke-dashoffset: 0;
        }
      }
    </style>
  </defs>
  
  <!-- Main outer shape -->
  <path class="animated-path" d="M390.28,40.67c26.02,24.77,58.82,52.9,82.12,79.33,12.06,13.68,21.15,32,22.51,50.47,3.46,46.81-2.7,97.81,0,145.07-2.11,18.13-9.18,34.19-21,47.99-29.18,34.06-69.99,63.9-99.96,97.98-14.6,12.7-32.01,20.79-51.45,22.52-48.59-2.71-100.84,3.47-149,0-18.21-1.31-36.68-9.77-50.45-21.53-35.16-30-67.23-68.95-101.96-99.98-11.17-13.42-18.23-29.5-20-46.98,2.7-47.26-3.46-98.26,0-145.07,1.32-17.83,10.35-36.67,22-49.99C53.37,85.87,94.53,54.71,126.05,20.51c14.3-11.3,32.13-18.3,50.45-19.53,46.73-3.14,96.91,2.47,144.01,0,33.64,2.25,47.54,18.52,69.77,39.69Z"/>
  
  <!-- Top section -->
  <path class="animated-path" d="M146.05,20.52v47l1.5,1.5h200.9l1.5-1.5V20.52c-8.67-5.38-20.29-7.91-30.44-8.55-47.21-2.96-97.48,2.34-145.01,0-9.8,1.4-20,2.97-28.45,8.54Z"/>
  
  <!-- Corner elements -->
  <path class="animated-path" d="M136.06,28.02c-4.1.77-9.12,5.91-12.52,8.97-7.75,6.98-22.97,21.19-28.97,29.02-.77,1.01-1.93,1.26-1.49,3.01h41.48l1.5-1.5V28.02Z"/>
  <path class="animated-path" d="M402.92,69.02c.44-1.75-.72-2-1.49-3.01-5.25-6.86-17.27-17.74-23.97-24.02-3.05-2.86-11.42-11.37-13.97-13.02-1.23-.8-1.98-1.23-3.55-.95v39.5l1.5,1.5h41.48Z"/>
  
  <!-- Inner rectangles -->
  <path class="animated-path" d="M427.91,158.02v79H68.09v-79h39.48c14.84,0,38.48-21.38,38.48-36.5v-41l1.5-1.5h200.9l1.5,1.5v42c0,14.6,24.22,35.5,38.48,35.5h39.48Z"/>
  <path class="animated-path" d="M427.91,248.01v79h-39.48c-17.18,0-39.48,23.4-39.48,40.5v38.5h-201.9v-38.5c0-17.1-22.3-40.5-39.48-40.5h-39.48v-79h359.82Z"/>
  
  <!-- Bottom section -->
  <path class="animated-path" d="M349.95,417h-203.9l.4,47.56c.84,1.8,4.29,2.72,6.08,3.45,10.02,4.12,22.19,5.5,32.96,6.02,37.9,1.84,85.06,1.66,123.03,0,7.38-.32,16.31-1.04,23.45-2.54,3.36-.71,15.68-4.22,17.4-6.48l.58-48.02Z"/>
  
  <!-- Side elements -->
  <path class="animated-path" d="M136.06,79.02v39.5c0,4.38-7.16,16.28-10.46,19.53-2.41,2.39-14.19,8.96-17.03,8.96h-40.48v-40.5c0-11.27,18.42-27.5,29.49-27.5h38.48Z"/>
</svg>